<svg id="Layer_1" data-name="Layer 1" xmlns="http://www.w3.org/2000/svg" viewBox="0 0 192 195"><defs><style>.cls-1{fill:#e00;}</style></defs><title>Red Hat logo</title><metadata><?xpacket begin="﻿" id="W5M0MpCehiHzreSzNTczkc9d"?>
<x:xmpmeta xmlns:x="adobe:ns:meta/" x:xmptk="Adobe XMP Core 8.0-c001 1.000000, 0000/00/00-00:00:00        ">
   <rdf:RDF xmlns:rdf="http://www.w3.org/1999/02/22-rdf-syntax-ns#">
      <rdf:Description rdf:about=""
            xmlns:xmp="http://ns.adobe.com/xap/1.0/"
            xmlns:dc="http://purl.org/dc/elements/1.1/"
            xmlns:cq="http://www.day.com/jcr/cq/1.0"
            xmlns:tiff="http://ns.adobe.com/tiff/1.0/"
            xmlns:xmpRights="http://ns.adobe.com/xap/1.0/rights/">
         <xmp:rhcc-effective-on>2023-12-08T20:43:04.327Z</xmp:rhcc-effective-on>
         <xmp:rhcc-metadata-complete-moderator>pending</xmp:rhcc-metadata-complete-moderator>
         <xmp:rhcc-translation-id>TRA4ed82e21-e28a-4fa5-b095-965c72937a26</xmp:rhcc-translation-id>
         <xmp:brand-content-type>Logo</xmp:brand-content-type>
         <xmp:CreateDate>2023-12-08T20:43:04.327Z</xmp:CreateDate>
         <xmp:brand-color-mode>RGB</xmp:brand-color-mode>
         <xmp:rhcc-effective-on-set-on-upload>true</xmp:rhcc-effective-on-set-on-upload>
         <xmp:brand-logo-version>Stacked</xmp:brand-logo-version>
         <xmp:rhcc-metadata-complete-uploader>pending</xmp:rhcc-metadata-complete-uploader>
         <xmp:rhcc-file-last-modified>2024-05-28T20:46:42.181Z</xmp:rhcc-file-last-modified>
         <xmp:rhcc-audience>rhcc-audience:internal</xmp:rhcc-audience>
         <xmp:brand-content-subtype>Red Hat</xmp:brand-content-subtype>
         <xmp:rhcc-rights-restricted>no</xmp:rhcc-rights-restricted>
         <xmp:rhcc-derivative-id>DER4ed82e21-e28a-4fa5-b095-965c72937a26</xmp:rhcc-derivative-id>
         <xmp:brand-logo-color>Standard</xmp:brand-logo-color>
         <xmp:rhcc-notify-portal-subscribers-on-change>yes</xmp:rhcc-notify-portal-subscribers-on-change>
         <dc:format>image/svg+xml</dc:format>
         <dc:modified>2024-05-29T00:32:05.286Z</dc:modified>
         <dc:title>
            <rdf:Alt>
               <rdf:li xml:lang="x-default">Red Hat logo</rdf:li>
            </rdf:Alt>
         </dc:title>
         <cq:lastReplicationAction_scene7>Activate</cq:lastReplicationAction_scene7>
         <cq:lastReplicationAction_publish>Activate</cq:lastReplicationAction_publish>
         <cq:lastReplicated_publish>2024-05-29T16:22:16.657Z</cq:lastReplicated_publish>
         <cq:lastReplicatedBy>workflow-process-service</cq:lastReplicatedBy>
         <cq:lastReplicationAction>Activate</cq:lastReplicationAction>
         <cq:lastReplicatedBy_publish>workflow-process-service</cq:lastReplicatedBy_publish>
         <cq:isDelivered>false</cq:isDelivered>
         <cq:lastReplicated>2024-05-29T16:22:16.657Z</cq:lastReplicated>
         <cq:lastReplicatedBy_scene7>workflow-process-service</cq:lastReplicatedBy_scene7>
         <cq:lastReplicated_scene7>2024-05-29T16:22:16.657Z</cq:lastReplicated_scene7>
         <tiff:ImageLength>195</tiff:ImageLength>
         <tiff:ImageWidth>192</tiff:ImageWidth>
         <xmpRights:UsageTerms>
            <rdf:Alt>
               <rdf:li xml:lang="x-default">Logo C should only be used for large-scale signage. The combination of small text and a stacked layout is ideal for making the most of larger square spaces, like signage.&#xD;&#xA;&#xD;&#xA;The clear space should be at least twice the height of the letter "e" all the way around the logo.</rdf:li>
            </rdf:Alt>
         </xmpRights:UsageTerms>
      </rdf:Description>
   </rdf:RDF>
</x:xmpmeta>
                                                                                                    
                                                                                                    
                                                                                                    
                                                                                                    
                                                                                                    
                                                                                                    
                                                                                                    
                                                                                                    
                                                                                                    
                                                                                                    
                                                                                                    
                                                                                                    
                                                                                                    
                                                                                                    
                                                                                                    
                                                                                                    
                                                                                                    
                                                                                                    
                                                                              
<?xpacket end="w"?></metadata>
<path d="M158.1,62.11a14,14,0,0,1,.31,3.42C158.41,80.41,140.3,83,127.8,83,79.15,83,42.86,52.76,42.86,43.54a6.12,6.12,0,0,1,.22-1.94l-3.67,9.06A18.45,18.45,0,0,0,37.9,58c0,18.11,41,45.48,87.74,45.48,20.7,0,36.43-7.76,36.43-21.77,0-1.08,0-1.94-1.72-10.13Z"/><path class="cls-1" d="M127.8,83c12.5,0,30.61-2.58,30.61-17.46a14,14,0,0,0-.31-3.42l-7.45-32.36c-1.73-7.12-3.23-10.35-15.74-16.6C125.21,8.19,104.08,0,97.83,0,92,0,90.29,7.54,83.39,7.54c-6.68,0-11.64-5.6-17.89-5.6-6,0-9.92,4.09-12.94,12.5,0,0-8.4,23.72-9.48,27.16a6.12,6.12,0,0,0-.22,1.94C42.86,52.76,79.15,83,127.8,83m32.55-11.42c1.72,8.19,1.72,9.05,1.72,10.13,0,14-15.73,21.77-36.43,21.77C78.86,103.47,37.9,76.1,37.9,58a18.45,18.45,0,0,1,1.51-7.33C22.6,51.52.83,54.54.83,73.72.83,105.2,75.41,144,134.48,144c45.27,0,56.69-20.48,56.69-36.65,0-12.72-11-27.16-30.82-35.78"/><path d="M165.67,186.2c0,5.15,3.11,7.66,8.77,7.66a22.6,22.6,0,0,0,5.15-.73v-6a10.58,10.58,0,0,1-3.33.51c-2.33,0-3.19-.73-3.19-2.92v-9.18h6.75V169.4h-6.75v-7.8l-7.4,1.59v6.21h-4.88v6.16h4.88Zm-23,.13c0-1.59,1.6-2.37,4-2.37a18.6,18.6,0,0,1,4.38.55v3.1a9.3,9.3,0,0,1-4.61,1.14c-2.38,0-3.79-.91-3.79-2.42M145,194a11.24,11.24,0,0,0,6.66-1.87v1.46h7.3V178.07c0-5.88-4-9.13-10.59-9.13a26.9,26.9,0,0,0-11.27,2.65l2.65,5.43a19.82,19.82,0,0,1,7.3-1.91c3.06,0,4.61,1.18,4.61,3.6v1.19a21.32,21.32,0,0,0-5.48-.69c-6.2,0-9.95,2.6-9.95,7.26,0,4.24,3.38,7.48,8.77,7.48m-40.12-.41h7.85V181h13.14v12.5h7.85V161.6h-7.85v12.27H112.69V161.6h-7.85ZM74.93,181.45a6.12,6.12,0,0,1,6.34-6.12,7.45,7.45,0,0,1,5.11,1.88v8.44a7.08,7.08,0,0,1-5.11,1.92,6.14,6.14,0,0,1-6.34-6.12m11.54,12.09h7.31V160l-7.4,1.6v9.08A12.44,12.44,0,1,0,80,193.86a10.86,10.86,0,0,0,6.48-2.1ZM53,175A5.34,5.34,0,0,1,58,178.85H48A5,5,0,0,1,53,175M40.52,181.5c0,7,5.75,12.5,13.14,12.5a14.53,14.53,0,0,0,10.09-3.65L58.86,186A6.51,6.51,0,0,1,54,187.84,6.26,6.26,0,0,1,48.09,184H65.3v-1.83c0-7.67-5.16-13.19-12.19-13.19A12.4,12.4,0,0,0,40.52,181.5M27.79,168.31c2.6,0,4.06,1.64,4.06,3.6s-1.46,3.61-4.06,3.61H20v-7.21ZM12.18,193.54H20V181.91h6l6,11.63h8.76l-7-12.77a9.68,9.68,0,0,0,6-9c0-5.75-4.52-10.17-11.27-10.17H12.18Z"/></svg>